# xmcd CD database file
#
# Track frame offsets:
#	150
#	19146
#	42393
#	61662
#	78718
#	94607
#	110676
#	137558
#	153564
#	172298
#	194852
#	213849
#
# Disc length: 3084 seconds
#
# Revision: 21
# Processed by: cddbd v1.5.1PL0 Copyright (c) Steve Scherf et al.
# Submitted via: CDex 1.51
#
DISCID=ac0c0a0c
DTITLE=Jonny Lang - Lie To Me
DYEAR=1996
DGENRE=Blues
TTITLE0=Lie To Me
TTITLE1=Darker Side
TTITLE2=Good Morning Little School Girl
TTITLE3=Still Wonder
TTITLE4=Matchbox
TTITLE5=Back For A Taste Of Your Love
TTITLE6=A Quitter Never Wins
TTITLE7=Hit The Ground Running
TTITLE8=Rack 'Em Up
TTITLE9=When I Come To You
TTITLE10=There's Gotta Be A Change
TTITLE11=Missing Your Love
EXTD=LABEL =A and M Records, Inc.\nID =3145406402\nUPC =731454-0640-26\nCOPYRIGHT =1996 YEAR: 1996
EXTT0=
EXTT1=
EXTT2=
EXTT3=
EXTT4=
EXTT5=
EXTT6=
EXTT7=
EXTT8=
EXTT9=
EXTT10=
EXTT11=
PLAYORDER=
